<svg width="77" height="82" viewBox="0 0 77 82" fill="none" xmlns="http://www.w3.org/2000/svg">
<rect width="76.5721" height="82" rx="38.2861" fill="white"/>
<g filter="url(#filter0_d_21_20)">
<mask id="path-2-outside-1_21_20" maskUnits="userSpaceOnUse" x="10.4468" y="26.0048" width="22" height="22" fill="black">
<rect fill="white" x="10.4468" y="26.0048" width="22" height="22"/>
<path d="M19.3109 36.8408L12.4483 27.1219H16.1578L21.2769 34.6151L26.3589 27.1219H30.0313L23.1688 36.8408L30.4023 47.0048H26.6928L21.2769 39.0665L15.7869 47.0048H12.1145L19.3109 36.8408Z"/>
</mask>
<path d="M19.3109 36.8408L12.4483 27.1219H16.1578L21.2769 34.6151L26.3589 27.1219H30.0313L23.1688 36.8408L30.4023 47.0048H26.6928L21.2769 39.0665L15.7869 47.0048H12.1145L19.3109 36.8408Z" fill="black"/>
<path d="M19.3109 36.8408L19.879 37.243L20.1634 36.8414L19.8795 36.4393L19.3109 36.8408ZM12.4483 27.1219V26.4259H11.1048L11.8797 27.5234L12.4483 27.1219ZM16.1578 27.1219L16.7326 26.7293L16.5253 26.4259H16.1578V27.1219ZM21.2769 34.6151L20.7022 35.0078L21.279 35.8521L21.853 35.0058L21.2769 34.6151ZM26.3589 27.1219V26.4259H25.99L25.7829 26.7312L26.3589 27.1219ZM30.0313 27.1219L30.5999 27.5234L31.3749 26.4259H30.0313V27.1219ZM23.1688 36.8408L22.6002 36.4393L22.3156 36.8424L22.6017 37.2444L23.1688 36.8408ZM30.4023 47.0048V47.7009H31.752L30.9694 46.6012L30.4023 47.0048ZM26.6928 47.0048L26.1178 47.3971L26.3251 47.7009H26.6928V47.0048ZM21.2769 39.0665L21.8519 38.6742L21.2808 37.8372L20.7045 38.6706L21.2769 39.0665ZM15.7869 47.0048V47.7009H16.1518L16.3594 47.4007L15.7869 47.0048ZM12.1145 47.0048L11.5464 46.6026L10.7688 47.7009H12.1145V47.0048ZM19.8795 36.4393L13.0169 26.7205L11.8797 27.5234L18.7423 37.2423L19.8795 36.4393ZM12.4483 27.818H16.1578V26.4259H12.4483V27.818ZM15.5831 27.5146L20.7022 35.0078L21.8517 34.2225L16.7326 26.7293L15.5831 27.5146ZM21.853 35.0058L26.935 27.5126L25.7829 26.7312L20.7009 34.2244L21.853 35.0058ZM26.3589 27.818H30.0313V26.4259H26.3589V27.818ZM29.4627 26.7205L22.6002 36.4393L23.7374 37.2423L30.5999 27.5234L29.4627 26.7205ZM22.6017 37.2444L29.8352 47.4084L30.9694 46.6012L23.7359 36.4372L22.6017 37.2444ZM30.4023 46.3088H26.6928V47.7009H30.4023V46.3088ZM27.2678 46.6125L21.8519 38.6742L20.702 39.4588L26.1178 47.3971L27.2678 46.6125ZM20.7045 38.6706L15.2144 46.6089L16.3594 47.4007L21.8494 39.4624L20.7045 38.6706ZM15.7869 46.3088H12.1145V47.7009H15.7869V46.3088ZM12.6826 47.407L19.879 37.243L18.7428 36.4386L11.5464 46.6026L12.6826 47.407Z" fill="white" mask="url(#path-2-outside-1_21_20)"/>
<path d="M19.3109 36.8408L19.879 37.243L20.1634 36.8414L19.8795 36.4393L19.3109 36.8408ZM12.4483 27.1219V26.4259H11.1048L11.8797 27.5234L12.4483 27.1219ZM16.1578 27.1219L16.7326 26.7293L16.5253 26.4259H16.1578V27.1219ZM21.2769 34.6151L20.7022 35.0078L21.279 35.8521L21.853 35.0058L21.2769 34.6151ZM26.3589 27.1219V26.4259H25.99L25.7829 26.7312L26.3589 27.1219ZM30.0313 27.1219L30.5999 27.5234L31.3749 26.4259H30.0313V27.1219ZM23.1688 36.8408L22.6002 36.4393L22.3156 36.8424L22.6017 37.2444L23.1688 36.8408ZM30.4023 47.0048V47.7009H31.752L30.9694 46.6012L30.4023 47.0048ZM26.6928 47.0048L26.1178 47.3971L26.3251 47.7009H26.6928V47.0048ZM21.2769 39.0665L21.8519 38.6742L21.2808 37.8372L20.7045 38.6706L21.2769 39.0665ZM15.7869 47.0048V47.7009H16.1518L16.3594 47.4007L15.7869 47.0048ZM12.1145 47.0048L11.5464 46.6026L10.7688 47.7009H12.1145V47.0048ZM19.8795 36.4393L13.0169 26.7205L11.8797 27.5234L18.7423 37.2423L19.8795 36.4393ZM12.4483 27.818H16.1578V26.4259H12.4483V27.818ZM15.5831 27.5146L20.7022 35.0078L21.8517 34.2225L16.7326 26.7293L15.5831 27.5146ZM21.853 35.0058L26.935 27.5126L25.7829 26.7312L20.7009 34.2244L21.853 35.0058ZM26.3589 27.818H30.0313V26.4259H26.3589V27.818ZM29.4627 26.7205L22.6002 36.4393L23.7374 37.2423L30.5999 27.5234L29.4627 26.7205ZM22.6017 37.2444L29.8352 47.4084L30.9694 46.6012L23.7359 36.4372L22.6017 37.2444ZM30.4023 46.3088H26.6928V47.7009H30.4023V46.3088ZM27.2678 46.6125L21.8519 38.6742L20.702 39.4588L26.1178 47.3971L27.2678 46.6125ZM20.7045 38.6706L15.2144 46.6089L16.3594 47.4007L21.8494 39.4624L20.7045 38.6706ZM15.7869 46.3088H12.1145V47.7009H15.7869V46.3088ZM12.6826 47.407L19.879 37.243L18.7428 36.4386L11.5464 46.6026L12.6826 47.407Z" fill="black" fill-opacity="0.2" mask="url(#path-2-outside-1_21_20)"/>
</g>
<g filter="url(#filter1_d_21_20)">
<path d="M6.39716 24.6194L39.2515 10.4681L68.2364 24.6194" stroke="black" stroke-width="3.65427" stroke-linecap="round"/>
</g>
<g filter="url(#filter2_d_21_20)">
<path d="M40.7092 29.7284C39.7962 29.7284 39.0561 30.4686 39.0561 31.3815C39.0561 32.2945 39.7962 33.0347 40.7092 33.0347L40.7092 29.7284ZM22.2405 50.4523C21.595 49.8067 20.5483 49.8067 19.9027 50.4523L9.38229 60.9727C8.73671 61.6183 8.73671 62.665 9.38229 63.3106C10.0279 63.9562 11.0746 63.9562 11.7202 63.3106L21.0716 53.9591L30.4231 63.3106C31.0687 63.9562 32.1154 63.9562 32.7609 63.3106C33.4065 62.665 33.4065 61.6183 32.7609 60.9727L22.2405 50.4523ZM59.4439 31.3815L61.0971 31.3813L61.0968 29.7284L59.4439 29.7284L59.4439 31.3815ZM59.4505 70.5095L59.4502 72.1626L61.1039 72.1629L61.1037 70.5092L59.4505 70.5095ZM21.0716 70.5021L19.4185 70.5021L19.4185 72.155L21.0713 72.1553L21.0716 70.5021ZM40.7092 33.0347L59.4439 33.0347L59.4439 29.7284L40.7092 29.7284L40.7092 33.0347ZM57.7908 31.3818L57.7974 70.5098L61.1037 70.5092L61.0971 31.3813L57.7908 31.3818ZM59.4509 68.8564L21.0719 68.849L21.0713 72.1553L59.4502 72.1626L59.4509 68.8564ZM22.7247 70.5021L22.7247 51.6213L19.4185 51.6213L19.4185 70.5021L22.7247 70.5021Z" fill="black" fill-opacity="0.2"/>
</g>
<defs>
<filter id="filter0_d_21_20" x="10.7688" y="25.2434" width="23.5226" height="23.64" filterUnits="userSpaceOnUse" color-interpolation-filters="sRGB">
<feFlood flood-opacity="0" result="BackgroundImageFix"/>
<feColorMatrix in="SourceAlpha" type="matrix" values="0 0 0 0 0 0 0 0 0 0 0 0 0 0 0 0 0 0 127 0" result="hardAlpha"/>
<feOffset dx="1.35697"/>
<feGaussianBlur stdDeviation="0.591253"/>
<feComposite in2="hardAlpha" operator="out"/>
<feColorMatrix type="matrix" values="0 0 0 0 0 0 0 0 0 0 0 0 0 0 0 0 0 0 0.87 0"/>
<feBlend mode="normal" in2="BackgroundImageFix" result="effect1_dropShadow_21_20"/>
<feBlend mode="normal" in="SourceGraphic" in2="effect1_dropShadow_21_20" result="shape"/>
</filter>
<filter id="filter1_d_21_20" x="4.56958" y="7.27562" width="68.0339" height="20.3538" filterUnits="userSpaceOnUse" color-interpolation-filters="sRGB">
<feFlood flood-opacity="0" result="BackgroundImageFix"/>
<feColorMatrix in="SourceAlpha" type="matrix" values="0 0 0 0 0 0 0 0 0 0 0 0 0 0 0 0 0 0 127 0" result="hardAlpha"/>
<feOffset dx="1.35697"/>
<feGaussianBlur stdDeviation="0.591253"/>
<feComposite in2="hardAlpha" operator="out"/>
<feColorMatrix type="matrix" values="0 0 0 0 0 0 0 0 0 0 0 0 0 0 0 0 0 0 0.87 0"/>
<feBlend mode="normal" in2="BackgroundImageFix" result="effect1_dropShadow_21_20"/>
<feBlend mode="normal" in="SourceGraphic" in2="effect1_dropShadow_21_20" result="shape"/>
</filter>
<filter id="filter2_d_21_20" x="8.89813" y="28.5459" width="54.7453" height="44.7996" filterUnits="userSpaceOnUse" color-interpolation-filters="sRGB">
<feFlood flood-opacity="0" result="BackgroundImageFix"/>
<feColorMatrix in="SourceAlpha" type="matrix" values="0 0 0 0 0 0 0 0 0 0 0 0 0 0 0 0 0 0 127 0" result="hardAlpha"/>
<feOffset dx="1.35697"/>
<feGaussianBlur stdDeviation="0.591253"/>
<feComposite in2="hardAlpha" operator="out"/>
<feColorMatrix type="matrix" values="0 0 0 0 0 0 0 0 0 0 0 0 0 0 0 0 0 0 0.87 0"/>
<feBlend mode="normal" in2="BackgroundImageFix" result="effect1_dropShadow_21_20"/>
<feBlend mode="normal" in="SourceGraphic" in2="effect1_dropShadow_21_20" result="shape"/>
</filter>
</defs>
</svg>
